<svg width="800" height="800" viewBox="0 0 800 800" fill="none" xmlns="http://www.w3.org/2000/svg">
<path d="M555.883 693.053C537.209 693.053 519.459 688.428 502.835 679.154C457.111 653.679 428.212 596.181 408.063 536.958C369.014 612.231 294.866 719.827 202.319 686.128C180.52 678.204 144.496 653.829 148.496 579.982C150.071 551.033 157.795 518.734 169.745 489.31C113.447 444.386 15.6499 351.689 1.75035 259.692C-4.54945 217.893 6.20021 180.619 33.7493 148.92C63.3234 113.371 103.547 99.9217 149.771 110.421C240.193 130.971 343.44 247.542 395.238 338.114C444.337 267.891 559.358 145.095 660.105 123.621C705.328 113.971 744.577 125.496 773.451 157.02C790.801 175.969 808.7 210.368 795.326 266.666C776.301 346.614 701.953 439.911 649.405 490.234C660.705 521.259 666.605 555.132 665.155 583.757C662.53 636.43 637.88 672.929 595.832 686.428C582.107 690.853 568.783 693.053 555.883 693.053ZM421.412 393.288C423.162 398.312 424.662 403.112 425.787 407.537L429.862 423.912C446.611 491.434 474.661 604.506 527.909 634.13C543.208 642.705 560.283 643.73 580.057 637.38C600.857 630.705 612.156 611.806 613.706 581.107C614.656 562.157 611.806 542.483 606.706 524.258C605.381 524.933 604.156 525.508 603.057 525.883C573.357 537.108 524.584 526.808 503.685 496.234C495.81 484.685 481.285 453.686 516.434 414.562C535.009 395.462 558.358 390.638 581.107 400.562C597.707 407.787 612.706 422.537 625.306 441.436C669.954 394.962 734.752 313.215 746.727 247.392C751.177 223.018 747.502 204.818 735.477 191.694C718.928 173.669 698.454 168.02 670.829 173.869C568.333 195.869 433.887 362.613 421.412 393.288ZM213.094 520.084C207.819 534.958 203.544 551.308 201.244 568.532C199.369 582.507 195.169 628.705 219.919 637.73C287.941 662.454 361.364 522.583 386.188 461.66C383.963 452.861 381.863 444.461 379.864 436.336L375.814 420.162C358.214 350.239 234.518 182.494 138.321 160.645C111.172 154.445 90.3976 161.345 72.9731 182.294C55.1987 202.768 48.6739 225.443 52.6738 252.017C63.4484 323.29 143.946 401.262 194.069 442.611C210.244 418.387 229.518 400.637 249.868 395.612C261.317 392.812 290.141 390.063 311.341 425.561C311.691 426.111 311.991 426.761 312.316 427.361C332.165 467.635 319.315 498.809 300.666 514.534C277.617 534.058 242.343 535.883 213.094 520.084ZM235.343 473.485C247.543 481.135 261.217 480.46 267.467 475.185C274.142 469.56 269.442 457.085 266.592 451.061C264.142 447.136 262.242 445.586 261.692 445.336C256.392 445.936 246.093 456.361 235.343 473.485ZM558.108 447.111C557.058 447.111 556.008 447.811 554.033 449.836C552.733 451.311 543.033 462.535 546.233 467.21C552.208 476.01 575.332 481.26 584.857 477.735C585.382 477.41 586.057 477.11 586.732 476.635C578.032 461.885 568.558 451.336 560.508 447.836C559.558 447.436 558.833 447.111 558.108 447.111Z" fill="#1F8ECD"/>
</svg>
